<svg style="width:1em; height:1em; vertical-align:middle;" viewBox="0 0 25 25" version="1.1" xmlns="http://www.w3.org/2000/svg">
	<g fill="currentColor" fill-rule="evenodd">
		<path d="M2.99420208,25 C1.34331197,25 0,23.6570978 0,22.0005439 L0,2.5 C0,1.10966206 1.115964,0 2.49257535,0 L20,0 L20,1 L19.4953156,1 C18.6771088,1 18,1.67157288 18,2.5 C18,3.33420277 18.6694756,4 19.4953156,4 L20,4 L20,25 L5,25 L5,4 L17.5,4 C17.5,4 17,3.21048453 17,2.47355449 C17,1.73662445 17.5,1 17.5,1 L2.49336625,1 C1.66860284,1 1,1.66579723 1,2.5 C1,3.32842712 1.66725546,4 2.49336625,4 L4,4 L4,25 L2.99420208,25 L2.99420208,25 Z"></path>
	</g>
</svg>