<?xml version="1.0" encoding="UTF-8" standalone="no"?>
<svg width="550px" height="550px" viewBox="0 0 550 550" version="1.1" xmlns="http://www.w3.org/2000/svg" xmlns:xlink="http://www.w3.org/1999/xlink" xmlns:sketch="http://www.bohemiancoding.com/sketch/ns">
    <!-- Generator: Sketch 3.2.2 (9983) - http://www.bohemiancoding.com/sketch -->
    <title>Artboard 1</title>
    <desc>Created with Sketch.</desc>
    <defs>
        <linearGradient x1="0%" y1="50.0002523%" x2="100%" y2="50.0002523%" id="linearGradient-1">
            <stop stop-color="#EFEFEF" offset="0%"></stop>
            <stop stop-color="#E6E6E6" offset="100%"></stop>
        </linearGradient>
    </defs>
    <g id="Page-1" stroke="none" stroke-width="1" fill="none" fill-rule="evenodd" sketch:type="MSPage">
        <g id="Artboard-1" sketch:type="MSArtboardGroup">
            <g id="1420828790_Book" sketch:type="MSLayerGroup" transform="translate(8.000000, 32.000000)">
                <g id="Group" sketch:type="MSShapeGroup">
                    <path d="M94.7464178,61.8297129 L106.808929,53.2324752 L113.07204,64.0983614 L94.7464178,61.8297129 Z" id="Shape" fill="#000000"></path>
                    <path d="M542,456.117691 C542,473.366411 527.776716,487 510.232778,487 L32.6428533,487 C15.0977111,487 0,473.366411 0,456.117691 L0,117.423656 C0,100.172525 15.0977111,85.5866337 32.6428533,85.5866337 L510.232778,85.5866337 C527.776716,85.5866337 542,100.172525 542,117.423656 L542,456.117691 L542,456.117691 Z" id="Shape" fill="#4A4A4A"></path>
                    <rect id="Rectangle-path" fill="#F7F7F7" x="22.8844444" y="61.4777228" width="231.253333" height="366.455446"></rect>
                    <path d="M271.602222,444.315173 C273.771427,436.165156 280.635556,429.953495 289.066667,428.817965 L289.066667,427.933168 L254.137778,427.933168 L254.137778,428.81676 C262.568889,429.953495 269.433018,436.165156 271.602222,444.315173 L271.602222,444.315173 Z" id="Shape" fill="#C6C5C4"></path>
                    <path d="M289.066667,62.0442822 L289.066667,428.810733 C280.635556,429.958317 273.778653,436.160334 271.602222,444.313968 C269.425791,436.159129 262.568889,429.958317 254.137778,428.810733 L254.137778,62.0442822 C263.773333,63.1472649 269.554667,69.1491782 271.602222,77.0737772 C273.648573,69.1491782 280.635556,63.1472649 289.066667,62.0442822 L289.066667,62.0442822 Z" id="Shape" fill="url(#linearGradient-1)"></path>
                    <path d="M463.711111,365.570649 L286.657778,427.177354 L286.657778,63.2617822 L463.711111,1.65387129 L463.711111,365.570649 Z" id="Shape" fill="#EFEFEF"></path>
                    <rect id="Rectangle-path" fill="#D1D0CF" x="22.8844444" y="427.933168" width="497.435556" height="31.3415842"></rect>
                    <rect id="Rectangle-path" fill="#F7F7F7" x="22.8844444" y="61.4777228" width="231.253333" height="366.455446"></rect>
                    <rect id="Rectangle-path" fill="#F4F4F4" x="289.066667" y="61.4777228" width="231.253333" height="366.455446"></rect>
                    <path d="M289.066667,62.0442822 L289.066667,428.810733 C280.635556,429.958317 273.778653,436.160334 271.602222,444.313968 C269.425791,436.159129 262.568889,429.958317 254.137778,428.810733 L254.137778,62.0442822 C263.773333,63.1472649 269.554667,69.1491782 271.602222,77.0737772 C273.648573,69.1491782 280.635556,63.1472649 289.066667,62.0442822 L289.066667,62.0442822 Z" id="Shape" fill="url(#linearGradient-1)"></path>
                    <path id="Shape" fill="#F4F4F4" d="M291.306933,61.8297129 L290.047084,62.2733168 L290.047084,61.8297129 L291.306933,61.8297129 Z"></path>
                    <path d="M520.32,61.4777228 L520.32,87.8625149 C516.706667,86.7739975 513.842498,85.5866337 510.233982,85.5866337 L463.711111,85.5866337 L463.711111,61.4777228 L520.32,61.4777228 L520.32,61.4777228 Z" id="Shape" fill="#F4F4F4"></path>
                    <path d="M463.711111,366.249314 L286.657778,428.132067 L286.657778,62.5831163 L463.711111,0.700363861 L463.711111,366.249314 Z" id="Shape" fill="#E0E2E0"></path>
                    <path d="M86.1189822,327.403832 L105.991111,343.952188 L105.991111,53.039604 L66.2444444,53.039604 L66.2444444,343.937723 L86.1189822,327.403832 Z" id="Shape" fill="#4A4A4A"></path>
                </g>
            </g>
        </g>
    </g>
</svg>